<?xml version="1.0" encoding="UTF-8" standalone="no"?>
<!DOCTYPE svg PUBLIC "-//W3C//DTD SVG 1.1//EN"
 "http://www.w3.org/Graphics/SVG/1.1/DTD/svg11.dtd">
<!-- Generated by graphviz version 2.43.0 (0)
 -->
<!-- Title: G Pages: 1 -->
<svg width="3241pt" height="569pt"
 viewBox="0.00 0.00 3241.20 569.20" xmlns="http://www.w3.org/2000/svg" xmlns:xlink="http://www.w3.org/1999/xlink">
<g id="graph0" class="graph" transform="scale(1 1) rotate(0) translate(21.6 547.6)">
<title>G</title>
<polygon fill="#111111" stroke="transparent" points="-21.6,21.6 -21.6,-547.6 3219.6,-547.6 3219.6,21.6 -21.6,21.6"/>
<!-- app/lib/infrastructure/http/error/http&#45;abort&#45;error.ts -->
<g id="node1" class="node">
<title>app/lib/infrastructure/http/error/http&#45;abort&#45;error.ts</title>
<path fill="none" stroke="#cfffac" d="M1652.83,-342C1652.83,-342 1363.17,-342 1363.17,-342 1359.33,-342 1355.5,-338.17 1355.5,-334.33 1355.5,-334.33 1355.5,-326.67 1355.5,-326.67 1355.5,-322.83 1359.33,-319 1363.17,-319 1363.17,-319 1652.83,-319 1652.83,-319 1656.67,-319 1660.5,-322.83 1660.5,-326.67 1660.5,-326.67 1660.5,-334.33 1660.5,-334.33 1660.5,-338.17 1656.67,-342 1652.83,-342"/>
<text text-anchor="middle" x="1508" y="-326.8" font-family="Arial" font-size="14.00" fill="#cfffac">app/lib/infrastructure/http/error/http&#45;abort&#45;error.ts</text>
</g>
<!-- app/lib/infrastructure/http/error/http&#45;network&#45;error.ts -->
<g id="node2" class="node">
<title>app/lib/infrastructure/http/error/http&#45;network&#45;error.ts</title>
<path fill="none" stroke="#cfffac" d="M1661.33,-301C1661.33,-301 1354.67,-301 1354.67,-301 1350.83,-301 1347,-297.17 1347,-293.33 1347,-293.33 1347,-285.67 1347,-285.67 1347,-281.83 1350.83,-278 1354.67,-278 1354.67,-278 1661.33,-278 1661.33,-278 1665.17,-278 1669,-281.83 1669,-285.67 1669,-285.67 1669,-293.33 1669,-293.33 1669,-297.17 1665.17,-301 1661.33,-301"/>
<text text-anchor="middle" x="1508" y="-285.8" font-family="Arial" font-size="14.00" fill="#cfffac">app/lib/infrastructure/http/error/http&#45;network&#45;error.ts</text>
</g>
<!-- app/lib/infrastructure/http/error/http&#45;payload&#45;error.ts -->
<g id="node3" class="node">
<title>app/lib/infrastructure/http/error/http&#45;payload&#45;error.ts</title>
<path fill="none" stroke="#cfffac" d="M1661.33,-383C1661.33,-383 1354.67,-383 1354.67,-383 1350.83,-383 1347,-379.17 1347,-375.33 1347,-375.33 1347,-367.67 1347,-367.67 1347,-363.83 1350.83,-360 1354.67,-360 1354.67,-360 1661.33,-360 1661.33,-360 1665.17,-360 1669,-363.83 1669,-367.67 1669,-367.67 1669,-375.33 1669,-375.33 1669,-379.17 1665.17,-383 1661.33,-383"/>
<text text-anchor="middle" x="1508" y="-367.8" font-family="Arial" font-size="14.00" fill="#cfffac">app/lib/infrastructure/http/error/http&#45;payload&#45;error.ts</text>
</g>
<!-- app/lib/infrastructure/http/error/http&#45;status&#45;error.ts -->
<g id="node4" class="node">
<title>app/lib/infrastructure/http/error/http&#45;status&#45;error.ts</title>
<path fill="none" stroke="#cfffac" d="M1655.83,-424C1655.83,-424 1360.17,-424 1360.17,-424 1356.33,-424 1352.5,-420.17 1352.5,-416.33 1352.5,-416.33 1352.5,-408.67 1352.5,-408.67 1352.5,-404.83 1356.33,-401 1360.17,-401 1360.17,-401 1655.83,-401 1655.83,-401 1659.67,-401 1663.5,-404.83 1663.5,-408.67 1663.5,-408.67 1663.5,-416.33 1663.5,-416.33 1663.5,-420.17 1659.67,-424 1655.83,-424"/>
<text text-anchor="middle" x="1508" y="-408.8" font-family="Arial" font-size="14.00" fill="#cfffac">app/lib/infrastructure/http/error/http&#45;status&#45;error.ts</text>
</g>
<!-- app/lib/infrastructure/http/error/index.ts -->
<g id="node5" class="node">
<title>app/lib/infrastructure/http/error/index.ts</title>
<path fill="none" stroke="#c6c5fe" d="M1177.83,-362C1177.83,-362 945.17,-362 945.17,-362 941.33,-362 937.5,-358.17 937.5,-354.33 937.5,-354.33 937.5,-346.67 937.5,-346.67 937.5,-342.83 941.33,-339 945.17,-339 945.17,-339 1177.83,-339 1177.83,-339 1181.67,-339 1185.5,-342.83 1185.5,-346.67 1185.5,-346.67 1185.5,-354.33 1185.5,-354.33 1185.5,-358.17 1181.67,-362 1177.83,-362"/>
<text text-anchor="middle" x="1061.5" y="-346.8" font-family="Arial" font-size="14.00" fill="#c6c5fe">app/lib/infrastructure/http/error/index.ts</text>
</g>
<!-- app/lib/infrastructure/http/error/index.ts&#45;&gt;app/lib/infrastructure/http/error/http&#45;abort&#45;error.ts -->
<g id="edge1" class="edge">
<title>app/lib/infrastructure/http/error/index.ts&#45;&gt;app/lib/infrastructure/http/error/http&#45;abort&#45;error.ts</title>
<path fill="none" stroke="#757575" d="M1185.73,-344.96C1235.09,-342.73 1292.64,-340.14 1345.29,-337.78"/>
<polygon fill="#757575" stroke="#757575" points="1345.57,-341.27 1355.4,-337.32 1345.25,-334.27 1345.57,-341.27"/>
</g>
<!-- app/lib/infrastructure/http/error/index.ts&#45;&gt;app/lib/infrastructure/http/error/http&#45;network&#45;error.ts -->
<g id="edge2" class="edge">
<title>app/lib/infrastructure/http/error/index.ts&#45;&gt;app/lib/infrastructure/http/error/http&#45;network&#45;error.ts</title>
<path fill="none" stroke="#757575" d="M1121.09,-338.95C1168.41,-329.93 1236.79,-317.62 1297,-309.5 1317.29,-306.76 1338.73,-304.27 1359.85,-302.04"/>
<polygon fill="#757575" stroke="#757575" points="1360.27,-305.52 1369.86,-301 1359.55,-298.55 1360.27,-305.52"/>
</g>
<!-- app/lib/infrastructure/http/error/index.ts&#45;&gt;app/lib/infrastructure/http/error/http&#45;payload&#45;error.ts -->
<g id="edge3" class="edge">
<title>app/lib/infrastructure/http/error/index.ts&#45;&gt;app/lib/infrastructure/http/error/http&#45;payload&#45;error.ts</title>
<path fill="none" stroke="#757575" d="M1185.73,-356.32C1232.46,-358.53 1286.53,-361.08 1336.83,-363.46"/>
<polygon fill="#757575" stroke="#757575" points="1336.68,-366.96 1346.83,-363.93 1337.01,-359.96 1336.68,-366.96"/>
</g>
<!-- app/lib/infrastructure/http/error/index.ts&#45;&gt;app/lib/infrastructure/http/error/http&#45;status&#45;error.ts -->
<g id="edge4" class="edge">
<title>app/lib/infrastructure/http/error/index.ts&#45;&gt;app/lib/infrastructure/http/error/http&#45;status&#45;error.ts</title>
<path fill="none" stroke="#757575" d="M1121.58,-362.07C1168.89,-371.03 1237.01,-383.27 1297,-391.5 1319.55,-394.59 1343.52,-397.42 1366.9,-399.93"/>
<polygon fill="#757575" stroke="#757575" points="1366.56,-403.42 1376.88,-400.99 1367.3,-396.46 1366.56,-403.42"/>
</g>
<!-- app/lib/infrastructure/http/executor/fetch.http&#45;request&#45;executor.ts -->
<g id="node6" class="node">
<title>app/lib/infrastructure/http/executor/fetch.http&#45;request&#45;executor.ts</title>
<path fill="none" stroke="#c6c5fe" d="M1253.33,-240C1253.33,-240 869.67,-240 869.67,-240 865.83,-240 862,-236.17 862,-232.33 862,-232.33 862,-224.67 862,-224.67 862,-220.83 865.83,-217 869.67,-217 869.67,-217 1253.33,-217 1253.33,-217 1257.17,-217 1261,-220.83 1261,-224.67 1261,-224.67 1261,-232.33 1261,-232.33 1261,-236.17 1257.17,-240 1253.33,-240"/>
<text text-anchor="middle" x="1061.5" y="-224.8" font-family="Arial" font-size="14.00" fill="#c6c5fe">app/lib/infrastructure/http/executor/fetch.http&#45;request&#45;executor.ts</text>
</g>
<!-- app/lib/infrastructure/http/executor/fetch.http&#45;request&#45;executor.ts&#45;&gt;app/lib/infrastructure/http/error/http&#45;abort&#45;error.ts -->
<g id="edge5" class="edge">
<title>app/lib/infrastructure/http/executor/fetch.http&#45;request&#45;executor.ts&#45;&gt;app/lib/infrastructure/http/error/http&#45;abort&#45;error.ts</title>
<path fill="none" stroke="#757575" d="M1089.34,-240.08C1132.31,-258.1 1219.59,-292.5 1297,-309.5 1312.56,-312.92 1328.89,-315.78 1345.28,-318.17"/>
<polygon fill="#757575" stroke="#757575" points="1345.1,-321.68 1355.49,-319.61 1346.07,-314.75 1345.1,-321.68"/>
</g>
<!-- app/lib/infrastructure/http/executor/fetch.http&#45;request&#45;executor.ts&#45;&gt;app/lib/infrastructure/http/error/http&#45;network&#45;error.ts -->
<g id="edge6" class="edge">
<title>app/lib/infrastructure/http/executor/fetch.http&#45;request&#45;executor.ts&#45;&gt;app/lib/infrastructure/http/error/http&#45;network&#45;error.ts</title>
<path fill="none" stroke="#757575" d="M1123.06,-240.02C1170.31,-248.71 1237.65,-260.48 1297,-268.5 1319.8,-271.58 1344.04,-274.41 1367.65,-276.93"/>
<polygon fill="#757575" stroke="#757575" points="1367.42,-280.43 1377.73,-277.99 1368.15,-273.47 1367.42,-280.43"/>
</g>
<!-- app/lib/infrastructure/http/executor/fetch.http&#45;request&#45;executor.ts&#45;&gt;app/lib/infrastructure/http/error/http&#45;payload&#45;error.ts -->
<g id="edge7" class="edge">
<title>app/lib/infrastructure/http/executor/fetch.http&#45;request&#45;executor.ts&#45;&gt;app/lib/infrastructure/http/error/http&#45;payload&#45;error.ts</title>
<path fill="none" stroke="#757575" d="M1086.26,-240.04C1123.73,-258.36 1198.71,-295.52 1261,-329.5 1277.26,-338.37 1279.38,-344.78 1297,-350.5 1309.83,-354.66 1323.31,-358.07 1337,-360.84"/>
<polygon fill="#757575" stroke="#757575" points="1336.51,-364.31 1346.99,-362.75 1337.82,-357.43 1336.51,-364.31"/>
</g>
<!-- app/lib/infrastructure/http/executor/http&#45;request&#45;executor.interface.ts -->
<g id="node7" class="node">
<title>app/lib/infrastructure/http/executor/http&#45;request&#45;executor.interface.ts</title>
<path fill="none" stroke="#c6c5fe" d="M1711.33,-142C1711.33,-142 1304.67,-142 1304.67,-142 1300.83,-142 1297,-138.17 1297,-134.33 1297,-134.33 1297,-126.67 1297,-126.67 1297,-122.83 1300.83,-119 1304.67,-119 1304.67,-119 1711.33,-119 1711.33,-119 1715.17,-119 1719,-122.83 1719,-126.67 1719,-126.67 1719,-134.33 1719,-134.33 1719,-138.17 1715.17,-142 1711.33,-142"/>
<text text-anchor="middle" x="1508" y="-126.8" font-family="Arial" font-size="14.00" fill="#c6c5fe">app/lib/infrastructure/http/executor/http&#45;request&#45;executor.interface.ts</text>
</g>
<!-- app/lib/infrastructure/http/executor/fetch.http&#45;request&#45;executor.ts&#45;&gt;app/lib/infrastructure/http/executor/http&#45;request&#45;executor.interface.ts -->
<g id="edge8" class="edge">
<title>app/lib/infrastructure/http/executor/fetch.http&#45;request&#45;executor.ts&#45;&gt;app/lib/infrastructure/http/executor/http&#45;request&#45;executor.interface.ts</title>
<path fill="none" stroke="#757575" d="M1093.9,-216.93C1138.45,-200.96 1222.87,-172.34 1297,-156.5 1321.82,-151.2 1348.53,-146.86 1374.31,-143.36"/>
<polygon fill="#757575" stroke="#757575" points="1375.07,-146.79 1384.52,-142.01 1374.15,-139.85 1375.07,-146.79"/>
</g>
<!-- app/lib/infrastructure/http/executor/parser/index.ts -->
<g id="node8" class="node">
<title>app/lib/infrastructure/http/executor/parser/index.ts</title>
<path fill="none" stroke="#c6c5fe" d="M1656.83,-260C1656.83,-260 1359.17,-260 1359.17,-260 1355.33,-260 1351.5,-256.17 1351.5,-252.33 1351.5,-252.33 1351.5,-244.67 1351.5,-244.67 1351.5,-240.83 1355.33,-237 1359.17,-237 1359.17,-237 1656.83,-237 1656.83,-237 1660.67,-237 1664.5,-240.83 1664.5,-244.67 1664.5,-244.67 1664.5,-252.33 1664.5,-252.33 1664.5,-256.17 1660.67,-260 1656.83,-260"/>
<text text-anchor="middle" x="1508" y="-244.8" font-family="Arial" font-size="14.00" fill="#c6c5fe">app/lib/infrastructure/http/executor/parser/index.ts</text>
</g>
<!-- app/lib/infrastructure/http/executor/fetch.http&#45;request&#45;executor.ts&#45;&gt;app/lib/infrastructure/http/executor/parser/index.ts -->
<g id="edge9" class="edge">
<title>app/lib/infrastructure/http/executor/fetch.http&#45;request&#45;executor.ts&#45;&gt;app/lib/infrastructure/http/executor/parser/index.ts</title>
<path fill="none" stroke="#757575" d="M1261.02,-237.43C1287.78,-238.64 1314.99,-239.86 1341.1,-241.04"/>
<polygon fill="#757575" stroke="#757575" points="1341.29,-244.55 1351.43,-241.5 1341.6,-237.55 1341.29,-244.55"/>
</g>
<!-- app/lib/infrastructure/http/http&#45;request.interface.ts -->
<g id="node9" class="node">
<title>app/lib/infrastructure/http/http&#45;request.interface.ts</title>
<path fill="none" stroke="#c6c5fe" d="M2134.83,-143C2134.83,-143 1839.17,-143 1839.17,-143 1835.33,-143 1831.5,-139.17 1831.5,-135.33 1831.5,-135.33 1831.5,-127.67 1831.5,-127.67 1831.5,-123.83 1835.33,-120 1839.17,-120 1839.17,-120 2134.83,-120 2134.83,-120 2138.67,-120 2142.5,-123.83 2142.5,-127.67 2142.5,-127.67 2142.5,-135.33 2142.5,-135.33 2142.5,-139.17 2138.67,-143 2134.83,-143"/>
<text text-anchor="middle" x="1987" y="-127.8" font-family="Arial" font-size="14.00" fill="#c6c5fe">app/lib/infrastructure/http/http&#45;request.interface.ts</text>
</g>
<!-- app/lib/infrastructure/http/executor/fetch.http&#45;request&#45;executor.ts&#45;&gt;app/lib/infrastructure/http/http&#45;request.interface.ts -->
<g id="edge10" class="edge">
<title>app/lib/infrastructure/http/executor/fetch.http&#45;request&#45;executor.ts&#45;&gt;app/lib/infrastructure/http/http&#45;request.interface.ts</title>
<path fill="none" stroke="#757575" d="M1261.02,-221.87C1391.59,-215.86 1565.98,-204.73 1719,-184.5 1791.4,-174.93 1873.69,-157.6 1927.54,-145.37"/>
<polygon fill="#757575" stroke="#757575" points="1928.62,-148.71 1937.59,-143.07 1927.06,-141.89 1928.62,-148.71"/>
</g>
<!-- app/lib/infrastructure/http/http&#45;response.interface.ts -->
<g id="node10" class="node">
<title>app/lib/infrastructure/http/http&#45;response.interface.ts</title>
<path fill="none" stroke="#cfffac" d="M2139.83,-102C2139.83,-102 1834.17,-102 1834.17,-102 1830.33,-102 1826.5,-98.17 1826.5,-94.33 1826.5,-94.33 1826.5,-86.67 1826.5,-86.67 1826.5,-82.83 1830.33,-79 1834.17,-79 1834.17,-79 2139.83,-79 2139.83,-79 2143.67,-79 2147.5,-82.83 2147.5,-86.67 2147.5,-86.67 2147.5,-94.33 2147.5,-94.33 2147.5,-98.17 2143.67,-102 2139.83,-102"/>
<text text-anchor="middle" x="1987" y="-86.8" font-family="Arial" font-size="14.00" fill="#cfffac">app/lib/infrastructure/http/http&#45;response.interface.ts</text>
</g>
<!-- app/lib/infrastructure/http/executor/fetch.http&#45;request&#45;executor.ts&#45;&gt;app/lib/infrastructure/http/http&#45;response.interface.ts -->
<g id="edge11" class="edge">
<title>app/lib/infrastructure/http/executor/fetch.http&#45;request&#45;executor.ts&#45;&gt;app/lib/infrastructure/http/http&#45;response.interface.ts</title>
<path fill="none" stroke="#757575" d="M1115.33,-216.94C1162.69,-206.98 1234.18,-192.9 1297,-184.5 1390.25,-172.03 1634.66,-192.2 1719,-150.5 1740.44,-139.9 1733.59,-121.16 1755,-110.5 1774.06,-101.01 1795.11,-94.58 1816.5,-90.36"/>
<polygon fill="#757575" stroke="#757575" points="1817.14,-93.8 1826.35,-88.58 1815.89,-86.92 1817.14,-93.8"/>
</g>
<!-- app/lib/infrastructure/http/executor/http&#45;request&#45;executor.interface.ts&#45;&gt;app/lib/infrastructure/http/http&#45;request.interface.ts -->
<g id="edge12" class="edge">
<title>app/lib/infrastructure/http/executor/http&#45;request&#45;executor.interface.ts&#45;&gt;app/lib/infrastructure/http/http&#45;request.interface.ts</title>
<path fill="none" stroke="#757575" d="M1719.26,-130.94C1753.44,-131.01 1788.4,-131.09 1821.29,-131.15"/>
<polygon fill="#757575" stroke="#757575" points="1821.42,-134.65 1831.42,-131.18 1821.43,-127.65 1821.42,-134.65"/>
</g>
<!-- app/lib/infrastructure/http/executor/http&#45;request&#45;executor.interface.ts&#45;&gt;app/lib/infrastructure/http/http&#45;response.interface.ts -->
<g id="edge13" class="edge">
<title>app/lib/infrastructure/http/executor/http&#45;request&#45;executor.interface.ts&#45;&gt;app/lib/infrastructure/http/http&#45;response.interface.ts</title>
<path fill="none" stroke="#757575" d="M1646.33,-118.98C1706.55,-113.93 1777.34,-108 1838.67,-102.86"/>
<polygon fill="#757575" stroke="#757575" points="1839.14,-106.33 1848.82,-102 1838.56,-99.35 1839.14,-106.33"/>
</g>
<!-- app/lib/infrastructure/http/executor/parser/json.response&#45;body&#45;parser.ts -->
<g id="node12" class="node">
<title>app/lib/infrastructure/http/executor/parser/json.response&#45;body&#45;parser.ts</title>
<path fill="none" stroke="#c6c5fe" d="M2687.33,-201C2687.33,-201 2262.67,-201 2262.67,-201 2258.83,-201 2255,-197.17 2255,-193.33 2255,-193.33 2255,-185.67 2255,-185.67 2255,-181.83 2258.83,-178 2262.67,-178 2262.67,-178 2687.33,-178 2687.33,-178 2691.17,-178 2695,-181.83 2695,-185.67 2695,-185.67 2695,-193.33 2695,-193.33 2695,-197.17 2691.17,-201 2687.33,-201"/>
<text text-anchor="middle" x="2475" y="-185.8" font-family="Arial" font-size="14.00" fill="#c6c5fe">app/lib/infrastructure/http/executor/parser/json.response&#45;body&#45;parser.ts</text>
</g>
<!-- app/lib/infrastructure/http/executor/parser/index.ts&#45;&gt;app/lib/infrastructure/http/executor/parser/json.response&#45;body&#45;parser.ts -->
<g id="edge16" class="edge">
<title>app/lib/infrastructure/http/executor/parser/index.ts&#45;&gt;app/lib/infrastructure/http/executor/parser/json.response&#45;body&#45;parser.ts</title>
<path fill="none" stroke="#757575" d="M1613.61,-236.99C1647.32,-232.89 1684.8,-227.93 1719,-222.5 1735.1,-219.94 1738.81,-217.36 1755,-215.5 1918,-196.82 2103.01,-190.47 2244.54,-188.7"/>
<polygon fill="#757575" stroke="#757575" points="2244.69,-192.2 2254.65,-188.59 2244.61,-185.2 2244.69,-192.2"/>
</g>
<!-- app/lib/infrastructure/http/executor/parser/response&#45;body&#45;parser&#45;resolver.ts -->
<g id="node13" class="node">
<title>app/lib/infrastructure/http/executor/parser/response&#45;body&#45;parser&#45;resolver.ts</title>
<path fill="none" stroke="#c6c5fe" d="M2211.33,-319C2211.33,-319 1762.67,-319 1762.67,-319 1758.83,-319 1755,-315.17 1755,-311.33 1755,-311.33 1755,-303.67 1755,-303.67 1755,-299.83 1758.83,-296 1762.67,-296 1762.67,-296 2211.33,-296 2211.33,-296 2215.17,-296 2219,-299.83 2219,-303.67 2219,-303.67 2219,-311.33 2219,-311.33 2219,-315.17 2215.17,-319 2211.33,-319"/>
<text text-anchor="middle" x="1987" y="-303.8" font-family="Arial" font-size="14.00" fill="#c6c5fe">app/lib/infrastructure/http/executor/parser/response&#45;body&#45;parser&#45;resolver.ts</text>
</g>
<!-- app/lib/infrastructure/http/executor/parser/index.ts&#45;&gt;app/lib/infrastructure/http/executor/parser/response&#45;body&#45;parser&#45;resolver.ts -->
<g id="edge17" class="edge">
<title>app/lib/infrastructure/http/executor/parser/index.ts&#45;&gt;app/lib/infrastructure/http/executor/parser/response&#45;body&#45;parser&#45;resolver.ts</title>
<path fill="none" stroke="#757575" d="M1664.52,-258.88C1682.99,-261.41 1701.49,-264.57 1719,-268.5 1735.6,-272.22 1738.43,-277.63 1755,-281.5 1778.14,-286.9 1802.86,-291.19 1827.21,-294.6"/>
<polygon fill="#757575" stroke="#757575" points="1826.86,-298.09 1837.24,-295.96 1827.8,-291.15 1826.86,-298.09"/>
</g>
<!-- app/lib/infrastructure/http/executor/parser/response&#45;body&#45;parser.interface.ts -->
<g id="node14" class="node">
<title>app/lib/infrastructure/http/executor/parser/response&#45;body&#45;parser.interface.ts</title>
<path fill="none" stroke="#cfffac" d="M3190.33,-261C3190.33,-261 2738.67,-261 2738.67,-261 2734.83,-261 2731,-257.17 2731,-253.33 2731,-253.33 2731,-245.67 2731,-245.67 2731,-241.83 2734.83,-238 2738.67,-238 2738.67,-238 3190.33,-238 3190.33,-238 3194.17,-238 3198,-241.83 3198,-245.67 3198,-245.67 3198,-253.33 3198,-253.33 3198,-257.17 3194.17,-261 3190.33,-261"/>
<text text-anchor="middle" x="2964.5" y="-245.8" font-family="Arial" font-size="14.00" fill="#cfffac">app/lib/infrastructure/http/executor/parser/response&#45;body&#45;parser.interface.ts</text>
</g>
<!-- app/lib/infrastructure/http/executor/parser/index.ts&#45;&gt;app/lib/infrastructure/http/executor/parser/response&#45;body&#45;parser.interface.ts -->
<g id="edge18" class="edge">
<title>app/lib/infrastructure/http/executor/parser/index.ts&#45;&gt;app/lib/infrastructure/http/executor/parser/response&#45;body&#45;parser.interface.ts</title>
<path fill="none" stroke="#757575" d="M1664.89,-248.32C1891.63,-248.09 2325.66,-247.81 2695,-248.5 2703.38,-248.52 2711.9,-248.53 2720.51,-248.55"/>
<polygon fill="#757575" stroke="#757575" points="2720.64,-252.05 2730.65,-248.58 2720.66,-245.05 2720.64,-252.05"/>
</g>
<!-- app/lib/infrastructure/http/executor/parser/text.response&#45;body&#45;parser.ts -->
<g id="node15" class="node">
<title>app/lib/infrastructure/http/executor/parser/text.response&#45;body&#45;parser.ts</title>
<path fill="none" stroke="#c6c5fe" d="M2685.83,-281C2685.83,-281 2264.17,-281 2264.17,-281 2260.33,-281 2256.5,-277.17 2256.5,-273.33 2256.5,-273.33 2256.5,-265.67 2256.5,-265.67 2256.5,-261.83 2260.33,-258 2264.17,-258 2264.17,-258 2685.83,-258 2685.83,-258 2689.67,-258 2693.5,-261.83 2693.5,-265.67 2693.5,-265.67 2693.5,-273.33 2693.5,-273.33 2693.5,-277.17 2689.67,-281 2685.83,-281"/>
<text text-anchor="middle" x="2475" y="-265.8" font-family="Arial" font-size="14.00" fill="#c6c5fe">app/lib/infrastructure/http/executor/parser/text.response&#45;body&#45;parser.ts</text>
</g>
<!-- app/lib/infrastructure/http/executor/parser/index.ts&#45;&gt;app/lib/infrastructure/http/executor/parser/text.response&#45;body&#45;parser.ts -->
<g id="edge19" class="edge">
<title>app/lib/infrastructure/http/executor/parser/index.ts&#45;&gt;app/lib/infrastructure/http/executor/parser/text.response&#45;body&#45;parser.ts</title>
<path fill="none" stroke="#757575" d="M1664.58,-251.89C1821.94,-255.31 2066.88,-260.64 2246.12,-264.54"/>
<polygon fill="#757575" stroke="#757575" points="2246.14,-268.04 2256.21,-264.76 2246.29,-261.04 2246.14,-268.04"/>
</g>
<!-- app/lib/infrastructure/http/method/http&#45;method.ts -->
<g id="node19" class="node">
<title>app/lib/infrastructure/http/method/http&#45;method.ts</title>
<path fill="none" stroke="#cfffac" d="M2619.83,-103C2619.83,-103 2330.17,-103 2330.17,-103 2326.33,-103 2322.5,-99.17 2322.5,-95.33 2322.5,-95.33 2322.5,-87.67 2322.5,-87.67 2322.5,-83.83 2326.33,-80 2330.17,-80 2330.17,-80 2619.83,-80 2619.83,-80 2623.67,-80 2627.5,-83.83 2627.5,-87.67 2627.5,-87.67 2627.5,-95.33 2627.5,-95.33 2627.5,-99.17 2623.67,-103 2619.83,-103"/>
<text text-anchor="middle" x="2475" y="-87.8" font-family="Arial" font-size="14.00" fill="#cfffac">app/lib/infrastructure/http/method/http&#45;method.ts</text>
</g>
<!-- app/lib/infrastructure/http/http&#45;request.interface.ts&#45;&gt;app/lib/infrastructure/http/method/http&#45;method.ts -->
<g id="edge29" class="edge">
<title>app/lib/infrastructure/http/http&#45;request.interface.ts&#45;&gt;app/lib/infrastructure/http/method/http&#45;method.ts</title>
<path fill="none" stroke="#757575" d="M2127.92,-119.98C2189.28,-114.93 2261.4,-109 2323.89,-103.86"/>
<polygon fill="#757575" stroke="#757575" points="2324.55,-107.31 2334.23,-103 2323.97,-100.34 2324.55,-107.31"/>
</g>
<!-- app/lib/infrastructure/http/executor/index.ts -->
<g id="node11" class="node">
<title>app/lib/infrastructure/http/executor/index.ts</title>
<path fill="none" stroke="#c6c5fe" d="M805.33,-142C805.33,-142 549.67,-142 549.67,-142 545.83,-142 542,-138.17 542,-134.33 542,-134.33 542,-126.67 542,-126.67 542,-122.83 545.83,-119 549.67,-119 549.67,-119 805.33,-119 805.33,-119 809.17,-119 813,-122.83 813,-126.67 813,-126.67 813,-134.33 813,-134.33 813,-138.17 809.17,-142 805.33,-142"/>
<text text-anchor="middle" x="677.5" y="-126.8" font-family="Arial" font-size="14.00" fill="#c6c5fe">app/lib/infrastructure/http/executor/index.ts</text>
</g>
<!-- app/lib/infrastructure/http/executor/index.ts&#45;&gt;app/lib/infrastructure/http/executor/fetch.http&#45;request&#45;executor.ts -->
<g id="edge14" class="edge">
<title>app/lib/infrastructure/http/executor/index.ts&#45;&gt;app/lib/infrastructure/http/executor/fetch.http&#45;request&#45;executor.ts</title>
<path fill="none" stroke="#757575" d="M723.44,-142.03C793.75,-160.07 929.56,-194.91 1005.57,-214.41"/>
<polygon fill="#757575" stroke="#757575" points="1004.88,-217.84 1015.43,-216.94 1006.62,-211.06 1004.88,-217.84"/>
</g>
<!-- app/lib/infrastructure/http/executor/index.ts&#45;&gt;app/lib/infrastructure/http/executor/http&#45;request&#45;executor.interface.ts -->
<g id="edge15" class="edge">
<title>app/lib/infrastructure/http/executor/index.ts&#45;&gt;app/lib/infrastructure/http/executor/http&#45;request&#45;executor.interface.ts</title>
<path fill="none" stroke="#757575" d="M813.46,-130.5C941.43,-130.5 1135.95,-130.5 1286.46,-130.5"/>
<polygon fill="#757575" stroke="#757575" points="1286.76,-134 1296.76,-130.5 1286.76,-127 1286.76,-134"/>
</g>
<!-- app/lib/infrastructure/http/executor/parser/json.response&#45;body&#45;parser.ts&#45;&gt;app/lib/infrastructure/http/executor/parser/response&#45;body&#45;parser.interface.ts -->
<g id="edge20" class="edge">
<title>app/lib/infrastructure/http/executor/parser/json.response&#45;body&#45;parser.ts&#45;&gt;app/lib/infrastructure/http/executor/parser/response&#45;body&#45;parser.interface.ts</title>
<path fill="none" stroke="#757575" d="M2574.41,-201.02C2612.13,-205.48 2655.57,-210.66 2695,-215.5 2750.96,-222.37 2813.46,-230.27 2864.06,-236.72"/>
<polygon fill="#757575" stroke="#757575" points="2863.66,-240.2 2874.02,-237.99 2864.55,-233.25 2863.66,-240.2"/>
</g>
<!-- app/lib/infrastructure/http/executor/parser/response&#45;body&#45;parser&#45;resolver.ts&#45;&gt;app/lib/infrastructure/http/executor/parser/response&#45;body&#45;parser.interface.ts -->
<g id="edge21" class="edge">
<title>app/lib/infrastructure/http/executor/parser/response&#45;body&#45;parser&#45;resolver.ts&#45;&gt;app/lib/infrastructure/http/executor/parser/response&#45;body&#45;parser.interface.ts</title>
<path fill="none" stroke="#757575" d="M2219.25,-308.74C2357.53,-307.71 2536.59,-303.26 2695,-289.5 2761.72,-283.7 2837.09,-272.02 2890.96,-262.77"/>
<polygon fill="#757575" stroke="#757575" points="2891.84,-266.17 2901.1,-261.01 2890.64,-259.27 2891.84,-266.17"/>
</g>
<!-- app/lib/infrastructure/http/executor/parser/response&#45;body&#45;parser&#45;resolver.ts&#45;&gt;app/lib/infrastructure/http/executor/parser/text.response&#45;body&#45;parser.ts -->
<g id="edge22" class="edge">
<title>app/lib/infrastructure/http/executor/parser/response&#45;body&#45;parser&#45;resolver.ts&#45;&gt;app/lib/infrastructure/http/executor/parser/text.response&#45;body&#45;parser.ts</title>
<path fill="none" stroke="#757575" d="M2135.13,-296C2192.44,-291.51 2258.23,-286.37 2316.49,-281.82"/>
<polygon fill="#757575" stroke="#757575" points="2316.83,-285.3 2326.53,-281.03 2316.28,-278.32 2316.83,-285.3"/>
</g>
<!-- app/lib/infrastructure/http/executor/parser/text.response&#45;body&#45;parser.ts&#45;&gt;app/lib/infrastructure/http/executor/parser/response&#45;body&#45;parser.interface.ts -->
<g id="edge23" class="edge">
<title>app/lib/infrastructure/http/executor/parser/text.response&#45;body&#45;parser.ts&#45;&gt;app/lib/infrastructure/http/executor/parser/response&#45;body&#45;parser.interface.ts</title>
<path fill="none" stroke="#757575" d="M2693.73,-260.57C2702.67,-260.2 2711.66,-259.83 2720.64,-259.46"/>
<polygon fill="#757575" stroke="#757575" points="2720.94,-262.95 2730.79,-259.05 2720.65,-255.96 2720.94,-262.95"/>
</g>
<!-- app/lib/infrastructure/http/http&#45;client.interface.ts -->
<g id="node16" class="node">
<title>app/lib/infrastructure/http/http&#45;client.interface.ts</title>
<path fill="none" stroke="#c6c5fe" d="M818.33,-23C818.33,-23 536.67,-23 536.67,-23 532.83,-23 529,-19.17 529,-15.33 529,-15.33 529,-7.67 529,-7.67 529,-3.83 532.83,0 536.67,0 536.67,0 818.33,0 818.33,0 822.17,0 826,-3.83 826,-7.67 826,-7.67 826,-15.33 826,-15.33 826,-19.17 822.17,-23 818.33,-23"/>
<text text-anchor="middle" x="677.5" y="-7.8" font-family="Arial" font-size="14.00" fill="#c6c5fe">app/lib/infrastructure/http/http&#45;client.interface.ts</text>
</g>
<!-- app/lib/infrastructure/http/http&#45;client.interface.ts&#45;&gt;app/lib/infrastructure/http/http&#45;response.interface.ts -->
<g id="edge24" class="edge">
<title>app/lib/infrastructure/http/http&#45;client.interface.ts&#45;&gt;app/lib/infrastructure/http/http&#45;response.interface.ts</title>
<path fill="none" stroke="#757575" d="M826.13,-13.9C943.94,-16.34 1113.15,-21 1261,-29.5 1472.05,-41.63 1717,-63.97 1861.34,-77.99"/>
<polygon fill="#757575" stroke="#757575" points="1861.26,-81.5 1871.55,-78.98 1861.94,-74.53 1861.26,-81.5"/>
</g>
<!-- app/lib/infrastructure/http/http&#45;client.ts -->
<g id="node17" class="node">
<title>app/lib/infrastructure/http/http&#45;client.ts</title>
<path fill="none" stroke="#c6c5fe" d="M485.33,-63C485.33,-63 258.67,-63 258.67,-63 254.83,-63 251,-59.17 251,-55.33 251,-55.33 251,-47.67 251,-47.67 251,-43.83 254.83,-40 258.67,-40 258.67,-40 485.33,-40 485.33,-40 489.17,-40 493,-43.83 493,-47.67 493,-47.67 493,-55.33 493,-55.33 493,-59.17 489.17,-63 485.33,-63"/>
<text text-anchor="middle" x="372" y="-47.8" font-family="Arial" font-size="14.00" fill="#c6c5fe">app/lib/infrastructure/http/http&#45;client.ts</text>
</g>
<!-- app/lib/infrastructure/http/http&#45;client.ts&#45;&gt;app/lib/infrastructure/http/http&#45;response.interface.ts -->
<g id="edge27" class="edge">
<title>app/lib/infrastructure/http/http&#45;client.ts&#45;&gt;app/lib/infrastructure/http/http&#45;response.interface.ts</title>
<path fill="none" stroke="#757575" d="M491.33,-63.02C504.04,-63.99 516.78,-64.85 529,-65.5 994.17,-90.33 1543.95,-92.38 1815.97,-91.57"/>
<polygon fill="#757575" stroke="#757575" points="1816.34,-95.07 1826.33,-91.53 1816.31,-88.07 1816.34,-95.07"/>
</g>
<!-- app/lib/infrastructure/http/http&#45;client.ts&#45;&gt;app/lib/infrastructure/http/executor/index.ts -->
<g id="edge25" class="edge">
<title>app/lib/infrastructure/http/http&#45;client.ts&#45;&gt;app/lib/infrastructure/http/executor/index.ts</title>
<path fill="none" stroke="#757575" d="M402.5,-63.03C433.57,-74.82 484.11,-92.99 529,-104.5 547.88,-109.34 568.34,-113.57 587.84,-117.14"/>
<polygon fill="#757575" stroke="#757575" points="587.48,-120.63 597.94,-118.95 588.71,-113.74 587.48,-120.63"/>
</g>
<!-- app/lib/infrastructure/http/http&#45;client.ts&#45;&gt;app/lib/infrastructure/http/http&#45;client.interface.ts -->
<g id="edge26" class="edge">
<title>app/lib/infrastructure/http/http&#45;client.ts&#45;&gt;app/lib/infrastructure/http/http&#45;client.interface.ts</title>
<path fill="none" stroke="#757575" d="M460.38,-39.98C497.51,-35.09 540.96,-29.36 579.12,-24.33"/>
<polygon fill="#757575" stroke="#757575" points="579.76,-27.78 589.21,-23 578.84,-20.84 579.76,-27.78"/>
</g>
<!-- app/lib/infrastructure/http/method/index.ts -->
<g id="node18" class="node">
<title>app/lib/infrastructure/http/method/index.ts</title>
<path fill="none" stroke="#c6c5fe" d="M1186.33,-62C1186.33,-62 936.67,-62 936.67,-62 932.83,-62 929,-58.17 929,-54.33 929,-54.33 929,-46.67 929,-46.67 929,-42.83 932.83,-39 936.67,-39 936.67,-39 1186.33,-39 1186.33,-39 1190.17,-39 1194,-42.83 1194,-46.67 1194,-46.67 1194,-54.33 1194,-54.33 1194,-58.17 1190.17,-62 1186.33,-62"/>
<text text-anchor="middle" x="1061.5" y="-46.8" font-family="Arial" font-size="14.00" fill="#c6c5fe">app/lib/infrastructure/http/method/index.ts</text>
</g>
<!-- app/lib/infrastructure/http/http&#45;client.ts&#45;&gt;app/lib/infrastructure/http/method/index.ts -->
<g id="edge28" class="edge">
<title>app/lib/infrastructure/http/http&#45;client.ts&#45;&gt;app/lib/infrastructure/http/method/index.ts</title>
<path fill="none" stroke="#757575" d="M493.15,-51.33C611.76,-51.15 793.11,-50.89 918.72,-50.71"/>
<polygon fill="#757575" stroke="#757575" points="918.8,-54.21 928.8,-50.69 918.79,-47.21 918.8,-54.21"/>
</g>
<!-- app/lib/infrastructure/http/method/index.ts&#45;&gt;app/lib/infrastructure/http/method/http&#45;method.ts -->
<g id="edge32" class="edge">
<title>app/lib/infrastructure/http/method/index.ts&#45;&gt;app/lib/infrastructure/http/method/http&#45;method.ts</title>
<path fill="none" stroke="#757575" d="M1194.42,-49.68C1409.25,-49.02 1847.99,-50.47 2219,-69.5 2261.74,-71.69 2308.41,-75.35 2350.01,-79.06"/>
<polygon fill="#757575" stroke="#757575" points="2349.92,-82.56 2360.19,-79.97 2350.54,-75.59 2349.92,-82.56"/>
</g>
<!-- app/lib/infrastructure/http/index.ts -->
<g id="node20" class="node">
<title>app/lib/infrastructure/http/index.ts</title>
<path fill="none" stroke="#c6c5fe" d="M207.33,-43C207.33,-43 7.67,-43 7.67,-43 3.83,-43 0,-39.17 0,-35.33 0,-35.33 0,-27.67 0,-27.67 0,-23.83 3.83,-20 7.67,-20 7.67,-20 207.33,-20 207.33,-20 211.17,-20 215,-23.83 215,-27.67 215,-27.67 215,-35.33 215,-35.33 215,-39.17 211.17,-43 207.33,-43"/>
<text text-anchor="middle" x="107.5" y="-27.8" font-family="Arial" font-size="14.00" fill="#c6c5fe">app/lib/infrastructure/http/index.ts</text>
</g>
<!-- app/lib/infrastructure/http/index.ts&#45;&gt;app/lib/infrastructure/http/http&#45;client.interface.ts -->
<g id="edge30" class="edge">
<title>app/lib/infrastructure/http/index.ts&#45;&gt;app/lib/infrastructure/http/http&#45;client.interface.ts</title>
<path fill="none" stroke="#757575" d="M215,-27.75C300.55,-24.74 421.97,-20.46 518.8,-17.05"/>
<polygon fill="#757575" stroke="#757575" points="519.11,-20.54 528.98,-16.69 518.86,-13.55 519.11,-20.54"/>
</g>
<!-- app/lib/infrastructure/http/index.ts&#45;&gt;app/lib/infrastructure/http/http&#45;client.ts -->
<g id="edge31" class="edge">
<title>app/lib/infrastructure/http/index.ts&#45;&gt;app/lib/infrastructure/http/http&#45;client.ts</title>
<path fill="none" stroke="#757575" d="M215.27,-39.63C223.54,-40.27 231.95,-40.91 240.36,-41.55"/>
<polygon fill="#757575" stroke="#757575" points="240.36,-45.06 250.6,-42.33 240.9,-38.08 240.36,-45.06"/>
</g>
<!-- app/shell/app.component.ts -->
<g id="node21" class="node">
<title>app/shell/app.component.ts</title>
<path fill="none" stroke="#cfffac" d="M760.83,-505C760.83,-505 594.17,-505 594.17,-505 590.33,-505 586.5,-501.17 586.5,-497.33 586.5,-497.33 586.5,-489.67 586.5,-489.67 586.5,-485.83 590.33,-482 594.17,-482 594.17,-482 760.83,-482 760.83,-482 764.67,-482 768.5,-485.83 768.5,-489.67 768.5,-489.67 768.5,-497.33 768.5,-497.33 768.5,-501.17 764.67,-505 760.83,-505"/>
<text text-anchor="middle" x="677.5" y="-489.8" font-family="Arial" font-size="14.00" fill="#cfffac">app/shell/app.component.ts</text>
</g>
<!-- app/shell/app.config.server.ts -->
<g id="node22" class="node">
<title>app/shell/app.config.server.ts</title>
<path fill="none" stroke="#c6c5fe" d="M765.33,-425C765.33,-425 589.67,-425 589.67,-425 585.83,-425 582,-421.17 582,-417.33 582,-417.33 582,-409.67 582,-409.67 582,-405.83 585.83,-402 589.67,-402 589.67,-402 765.33,-402 765.33,-402 769.17,-402 773,-405.83 773,-409.67 773,-409.67 773,-417.33 773,-417.33 773,-421.17 769.17,-425 765.33,-425"/>
<text text-anchor="middle" x="677.5" y="-409.8" font-family="Arial" font-size="14.00" fill="#c6c5fe">app/shell/app.config.server.ts</text>
</g>
<!-- app/shell/app.config.ts -->
<g id="node23" class="node">
<title>app/shell/app.config.ts</title>
<path fill="none" stroke="#c6c5fe" d="M1129.33,-465C1129.33,-465 993.67,-465 993.67,-465 989.83,-465 986,-461.17 986,-457.33 986,-457.33 986,-449.67 986,-449.67 986,-445.83 989.83,-442 993.67,-442 993.67,-442 1129.33,-442 1129.33,-442 1133.17,-442 1137,-445.83 1137,-449.67 1137,-449.67 1137,-457.33 1137,-457.33 1137,-461.17 1133.17,-465 1129.33,-465"/>
<text text-anchor="middle" x="1061.5" y="-449.8" font-family="Arial" font-size="14.00" fill="#c6c5fe">app/shell/app.config.ts</text>
</g>
<!-- app/shell/app.config.server.ts&#45;&gt;app/shell/app.config.ts -->
<g id="edge33" class="edge">
<title>app/shell/app.config.server.ts&#45;&gt;app/shell/app.config.ts</title>
<path fill="none" stroke="#757575" d="M773.42,-423.44C835.46,-429.94 915.78,-438.35 975.68,-444.62"/>
<polygon fill="#757575" stroke="#757575" points="975.55,-448.12 985.86,-445.68 976.28,-441.16 975.55,-448.12"/>
</g>
<!-- app/shell/app.routes.server.ts -->
<g id="node24" class="node">
<title>app/shell/app.routes.server.ts</title>
<path fill="none" stroke="#cfffac" d="M1150.33,-424C1150.33,-424 972.67,-424 972.67,-424 968.83,-424 965,-420.17 965,-416.33 965,-416.33 965,-408.67 965,-408.67 965,-404.83 968.83,-401 972.67,-401 972.67,-401 1150.33,-401 1150.33,-401 1154.17,-401 1158,-404.83 1158,-408.67 1158,-408.67 1158,-416.33 1158,-416.33 1158,-420.17 1154.17,-424 1150.33,-424"/>
<text text-anchor="middle" x="1061.5" y="-408.8" font-family="Arial" font-size="14.00" fill="#cfffac">app/shell/app.routes.server.ts</text>
</g>
<!-- app/shell/app.config.server.ts&#45;&gt;app/shell/app.routes.server.ts -->
<g id="edge34" class="edge">
<title>app/shell/app.config.server.ts&#45;&gt;app/shell/app.routes.server.ts</title>
<path fill="none" stroke="#757575" d="M773.42,-413.25C828.45,-413.11 897.87,-412.93 954.66,-412.78"/>
<polygon fill="#757575" stroke="#757575" points="954.75,-416.28 964.74,-412.75 954.74,-409.28 954.75,-416.28"/>
</g>
<!-- app/shell/app.routes.ts -->
<g id="node25" class="node">
<title>app/shell/app.routes.ts</title>
<path fill="none" stroke="#c6c5fe" d="M1576.33,-465C1576.33,-465 1439.67,-465 1439.67,-465 1435.83,-465 1432,-461.17 1432,-457.33 1432,-457.33 1432,-449.67 1432,-449.67 1432,-445.83 1435.83,-442 1439.67,-442 1439.67,-442 1576.33,-442 1576.33,-442 1580.17,-442 1584,-445.83 1584,-449.67 1584,-449.67 1584,-457.33 1584,-457.33 1584,-461.17 1580.17,-465 1576.33,-465"/>
<text text-anchor="middle" x="1508" y="-449.8" font-family="Arial" font-size="14.00" fill="#c6c5fe">app/shell/app.routes.ts</text>
</g>
<!-- app/shell/app.config.ts&#45;&gt;app/shell/app.routes.ts -->
<g id="edge35" class="edge">
<title>app/shell/app.config.ts&#45;&gt;app/shell/app.routes.ts</title>
<path fill="none" stroke="#757575" d="M1137.15,-453.5C1215.72,-453.5 1339.22,-453.5 1421.61,-453.5"/>
<polygon fill="#757575" stroke="#757575" points="1421.7,-457 1431.7,-453.5 1421.7,-450 1421.7,-457"/>
</g>
<!-- app/shell/pages/dashboard&#45;page/index.ts -->
<g id="node26" class="node">
<title>app/shell/pages/dashboard&#45;page/index.ts</title>
<path fill="none" stroke="#c6c5fe" d="M2110.83,-465C2110.83,-465 1863.17,-465 1863.17,-465 1859.33,-465 1855.5,-461.17 1855.5,-457.33 1855.5,-457.33 1855.5,-449.67 1855.5,-449.67 1855.5,-445.83 1859.33,-442 1863.17,-442 1863.17,-442 2110.83,-442 2110.83,-442 2114.67,-442 2118.5,-445.83 2118.5,-449.67 2118.5,-449.67 2118.5,-457.33 2118.5,-457.33 2118.5,-461.17 2114.67,-465 2110.83,-465"/>
<text text-anchor="middle" x="1987" y="-449.8" font-family="Arial" font-size="14.00" fill="#c6c5fe">app/shell/pages/dashboard&#45;page/index.ts</text>
</g>
<!-- app/shell/app.routes.ts&#45;&gt;app/shell/pages/dashboard&#45;page/index.ts -->
<g id="edge36" class="edge">
<title>app/shell/app.routes.ts&#45;&gt;app/shell/pages/dashboard&#45;page/index.ts</title>
<path fill="none" stroke="#757575" d="M1584.06,-453.5C1653.84,-453.5 1759.58,-453.5 1845.1,-453.5"/>
<polygon fill="#757575" stroke="#757575" points="1845.16,-457 1855.16,-453.5 1845.16,-450 1845.16,-457"/>
</g>
<!-- app/shell/pages/dashboard&#45;page/dashboard&#45;page.component.ts -->
<g id="node28" class="node">
<title>app/shell/pages/dashboard&#45;page/dashboard&#45;page.component.ts</title>
<path fill="none" stroke="#cfffac" d="M2667.83,-465C2667.83,-465 2282.17,-465 2282.17,-465 2278.33,-465 2274.5,-461.17 2274.5,-457.33 2274.5,-457.33 2274.5,-449.67 2274.5,-449.67 2274.5,-445.83 2278.33,-442 2282.17,-442 2282.17,-442 2667.83,-442 2667.83,-442 2671.67,-442 2675.5,-445.83 2675.5,-449.67 2675.5,-449.67 2675.5,-457.33 2675.5,-457.33 2675.5,-461.17 2671.67,-465 2667.83,-465"/>
<text text-anchor="middle" x="2475" y="-449.8" font-family="Arial" font-size="14.00" fill="#cfffac">app/shell/pages/dashboard&#45;page/dashboard&#45;page.component.ts</text>
</g>
<!-- app/shell/pages/dashboard&#45;page/index.ts&#45;&gt;app/shell/pages/dashboard&#45;page/dashboard&#45;page.component.ts -->
<g id="edge40" class="edge">
<title>app/shell/pages/dashboard&#45;page/index.ts&#45;&gt;app/shell/pages/dashboard&#45;page/dashboard&#45;page.component.ts</title>
<path fill="none" stroke="#757575" d="M2118.56,-453.5C2163.27,-453.5 2214.51,-453.5 2263.89,-453.5"/>
<polygon fill="#757575" stroke="#757575" points="2264.07,-457 2274.07,-453.5 2264.07,-450 2264.07,-457"/>
</g>
<!-- app/shell/index.ts -->
<g id="node27" class="node">
<title>app/shell/index.ts</title>
<path fill="none" stroke="#c6c5fe" d="M424.83,-465C424.83,-465 319.17,-465 319.17,-465 315.33,-465 311.5,-461.17 311.5,-457.33 311.5,-457.33 311.5,-449.67 311.5,-449.67 311.5,-445.83 315.33,-442 319.17,-442 319.17,-442 424.83,-442 424.83,-442 428.67,-442 432.5,-445.83 432.5,-449.67 432.5,-449.67 432.5,-457.33 432.5,-457.33 432.5,-461.17 428.67,-465 424.83,-465"/>
<text text-anchor="middle" x="372" y="-449.8" font-family="Arial" font-size="14.00" fill="#c6c5fe">app/shell/index.ts</text>
</g>
<!-- app/shell/index.ts&#45;&gt;app/shell/app.component.ts -->
<g id="edge37" class="edge">
<title>app/shell/index.ts&#45;&gt;app/shell/app.component.ts</title>
<path fill="none" stroke="#757575" d="M432.6,-461.35C474.26,-466.85 530.84,-474.3 579.01,-480.65"/>
<polygon fill="#757575" stroke="#757575" points="578.78,-484.15 589.15,-481.99 579.7,-477.21 578.78,-484.15"/>
</g>
<!-- app/shell/index.ts&#45;&gt;app/shell/app.config.server.ts -->
<g id="edge38" class="edge">
<title>app/shell/index.ts&#45;&gt;app/shell/app.config.server.ts</title>
<path fill="none" stroke="#757575" d="M432.6,-445.65C474.26,-440.15 530.84,-432.7 579.01,-426.35"/>
<polygon fill="#757575" stroke="#757575" points="579.7,-429.79 589.15,-425.01 578.78,-422.85 579.7,-429.79"/>
</g>
<!-- app/shell/index.ts&#45;&gt;app/shell/app.config.ts -->
<g id="edge39" class="edge">
<title>app/shell/index.ts&#45;&gt;app/shell/app.config.ts</title>
<path fill="none" stroke="#757575" d="M432.51,-453.5C554.71,-453.5 834.29,-453.5 975.52,-453.5"/>
<polygon fill="#757575" stroke="#757575" points="975.86,-457 985.86,-453.5 975.86,-450 975.86,-457"/>
</g>
<!-- main.server.ts -->
<g id="node29" class="node">
<title>main.server.ts</title>
<path fill="none" stroke="#c6c5fe" d="M150.33,-485C150.33,-485 64.67,-485 64.67,-485 60.83,-485 57,-481.17 57,-477.33 57,-477.33 57,-469.67 57,-469.67 57,-465.83 60.83,-462 64.67,-462 64.67,-462 150.33,-462 150.33,-462 154.17,-462 158,-465.83 158,-469.67 158,-469.67 158,-477.33 158,-477.33 158,-481.17 154.17,-485 150.33,-485"/>
<text text-anchor="middle" x="107.5" y="-469.8" font-family="Arial" font-size="14.00" fill="#c6c5fe">main.server.ts</text>
</g>
<!-- main.server.ts&#45;&gt;app/shell/index.ts -->
<g id="edge41" class="edge">
<title>main.server.ts&#45;&gt;app/shell/index.ts</title>
<path fill="none" stroke="#757575" d="M158.18,-469.71C198.67,-466.63 256.32,-462.24 301.4,-458.8"/>
<polygon fill="#757575" stroke="#757575" points="301.7,-462.29 311.4,-458.04 301.17,-455.31 301.7,-462.29"/>
</g>
<!-- main.ts -->
<g id="node30" class="node">
<title>main.ts</title>
<path fill="none" stroke="#c6c5fe" d="M130.33,-444C130.33,-444 84.67,-444 84.67,-444 80.83,-444 77,-440.17 77,-436.33 77,-436.33 77,-428.67 77,-428.67 77,-424.83 80.83,-421 84.67,-421 84.67,-421 130.33,-421 130.33,-421 134.17,-421 138,-424.83 138,-428.67 138,-428.67 138,-436.33 138,-436.33 138,-440.17 134.17,-444 130.33,-444"/>
<text text-anchor="middle" x="107.5" y="-428.8" font-family="Arial" font-size="14.00" fill="#c6c5fe">main.ts</text>
</g>
<!-- main.ts&#45;&gt;app/shell/index.ts -->
<g id="edge42" class="edge">
<title>main.ts&#45;&gt;app/shell/index.ts</title>
<path fill="none" stroke="#757575" d="M138.1,-434.87C177.4,-438.01 248.03,-443.66 301.24,-447.92"/>
<polygon fill="#757575" stroke="#757575" points="301.05,-451.42 311.3,-448.72 301.61,-444.44 301.05,-451.42"/>
</g>
<!-- server.ts -->
<g id="node31" class="node">
<title>server.ts</title>
<path fill="none" stroke="#cfffac" d="M133.83,-526C133.83,-526 81.17,-526 81.17,-526 77.33,-526 73.5,-522.17 73.5,-518.33 73.5,-518.33 73.5,-510.67 73.5,-510.67 73.5,-506.83 77.33,-503 81.17,-503 81.17,-503 133.83,-503 133.83,-503 137.67,-503 141.5,-506.83 141.5,-510.67 141.5,-510.67 141.5,-518.33 141.5,-518.33 141.5,-522.17 137.67,-526 133.83,-526"/>
<text text-anchor="middle" x="107.5" y="-510.8" font-family="Arial" font-size="14.00" fill="#cfffac">server.ts</text>
</g>
</g>
</svg>
